<?xml version="1.0" encoding="UTF-8" standalone="no"?>
<svg xmlns="http://www.w3.org/2000/svg" xmlns:xlink="http://www.w3.org/1999/xlink"
   xmlns:svgjs="http://svgjs.dev/svgjs" version="1.1" width="308.7612359841165"
   height="304.915625"
   viewBox="0 0 1000 1000">
   <g transform="matrix(1,0,0,1,-0.14221556886212738,-0.14221556886229791)">
      <svg xmlns="http://www.w3.org/2000/svg" xmlns:xlink="http://www.w3.org/1999/xlink"
         viewBox="0 0 334 334" data-background-color="#99592a" preserveAspectRatio="xMidYMid meet"
         height="1000" width="1000">
         <g id="tight-bounds" transform="matrix(1,0,0,1,0.04749999999998522,0.04750000000001364)">
            <svg viewBox="0 0 333.90454557049503 333.90454557049503" height="333.90454557049503"
               width="333.90454557049503">
               <g>
                  <svg />
               </g>
               <g>
                  <svg viewBox="0 0 333.90454557049503 333.90454557049503"
                     height="333.90454557049503" width="333.90454557049503">
                     <g>
                        <path
                           d="M0 166.952c0-92.205 74.747-166.952 166.952-166.952 92.205 0 166.952 74.747 166.953 166.952 0 92.205-74.747 166.952-166.953 166.953-92.205 0-166.952-74.747-166.952-166.953zM166.952 327.711c88.785 0 160.759-71.974 160.759-160.759 0-88.785-71.974-160.759-160.759-160.758-88.785 0-160.759 71.974-160.758 160.758 0 88.785 71.974 160.759 160.758 160.759z"
                           data-fill-palette-color="tertiary" fill="#000000" stroke="transparent" />
                        <ellipse rx="160.27418187383762" ry="160.27418187383762"
                           cx="166.95227278524752" cy="166.95227278524752" fill="#000000"
                           stroke="transparent" stroke-width="0" fill-opacity="1"
                           data-fill-palette-color="tertiary" />
                     </g>
                     <g transform="matrix(1,0,0,1,82.17078708231321,71.17305217166896)">
                        <svg viewBox="0 0 169.5629714058686 191.55844122715712"
                           height="191.55844122715712" width="169.5629714058686">
                           <g>
                              <svg viewBox="0 0 169.5629714058686 191.55844122715712"
                                 height="191.55844122715712" width="169.5629714058686">
                                 <g>
                                    <svg viewBox="0 0 213.1584412271571 240.8090539894348"
                                       height="191.55844122715712" width="169.5629714058686">
                                       <g transform="matrix(1,0,0,1,0,127.15757543228898)">
                                          <svg viewBox="0 0 213.1584412271571 113.65147855714584"
                                             height="113.65147855714584" width="213.1584412271571">
                                             <g id="textblocktransform">
                                                <svg
                                                   viewBox="0 0 213.1584412271571 113.65147855714584"
                                                   height="113.65147855714584"
                                                   width="213.1584412271571" id="textblock">
                                                   <g>
                                                      <svg
                                                         viewBox="0 0 213.1584412271571 86.33831712795258"
                                                         height="86.33831712795258"
                                                         width="213.1584412271571">
                                                         <g transform="matrix(1,0,0,1,0,0)">
                                                            <svg width="213.1584412271571"
                                                               viewBox="4 -37.5 93.19000244140625 37.75"
                                                               height="86.33831712795258"
                                                               data-palette-color="#99592a">
                                                               <path
                                                                  d="M22.2-35L21.95-32 7.4-32 7.4-18.85 20.9-18.85 20.65-15.85 7.4-15.85 7.4-3 23.2-3 22.95 0 4 0 4-35 22.2-35ZM42.05-24.5L40.75-21.5Q39.95-21.95 39.05-21.95 38.15-21.95 38.05-21.9L38.05-21.9Q36.15-21.9 34.22-20.53 32.3-19.15 30.95-17.45L30.95-17.45 30.95 0 27.7 0 27.7-25 30.95-25.25 30.95-19.65Q32.8-22 34.1-22.95L34.1-22.95Q36.5-24.75 38.7-24.85L38.7-24.85Q39-24.9 39.8-24.9 40.6-24.9 42.05-24.5L42.05-24.5ZM45.59-25L48.84-25.25 48.84 0 45.59 0 45.59-25ZM47.09-31.7Q46.09-31.7 45.57-32.35 45.05-33 45.05-34 45.05-35 45.62-35.63 46.2-36.25 47.2-36.25 48.2-36.25 48.82-35.63 49.45-35 49.45-33.9 49.45-32.8 48.77-32.25 48.09-31.7 47.09-31.7ZM71.34-16.4L71.09-21.65Q69.04-22.3 66.89-22.3L66.89-22.3Q62.54-22.3 59.92-19.5 57.29-16.7 57.29-11.6L57.29-11.6Q57.29-2.7 65.54-2.7L65.54-2.7Q68.84-2.7 72.34-3.8L72.34-3.8Q73.04-4 73.19-4.1L73.19-4.1 73.99-1.4Q72.24-0.35 67.64 0.1L67.64 0.1Q66.34 0.2 64.89 0.2L64.89 0.2Q60.64 0.2 57.89-1.9L57.89-1.9Q54.04-4.8 54.04-11.45 54.04-18.1 57.62-21.68 61.19-25.25 66.84-25.25L66.84-25.25Q68.64-25.25 70.67-24.78 72.69-24.3 73.79-23.3L73.79-23.3 73.79-16.75 71.34-16.4ZM82.24-37.5L82.24 0 78.99 0 78.99-37.25 82.24-37.5ZM82.24-13.3L92.29-25 96.19-25 85.49-13.3 97.19 0 93.54 0.25 82.24-13.3Z"
                                                                  opacity="1"
                                                                  transform="matrix(1,0,0,1,0,0)"
                                                                  fill="#ffffff"
                                                                  class="undefined-text-0"
                                                                  data-fill-palette-color="quaternary"
                                                                  id="text-0" />
                                                            </svg>
                                                         </g>
                                                      </svg>
                                                   </g>
                                                   <g
                                                      transform="matrix(1,0,0,1,40.713262274387006,106.72072168225111)">
                                                      <svg
                                                         viewBox="0 0 131.7319166783831 6.9307568748947235"
                                                         height="6.9307568748947235"
                                                         width="131.7319166783831">
                                                         <g transform="matrix(1,0,0,1,0,0)">
                                                            <svg width="131.7319166783831"
                                                               viewBox="2.1500000953674316 -34.75 692.7599487304688 36.45000076293945"
                                                               height="6.9307568748947235"
                                                               data-palette-color="#99592a">
                                                               <path
                                                                  d="M16.8 1.2Q13.25 1.2 9.65 0.4L9.65 0.4Q6.1-0.45 3.8-1.9L3.8-1.9Q3.2-3.7 2.9-5.5 2.6-7.3 2.15-10.65L2.15-10.65 2.15-10.8Q2.25-11.4 2.8-11.7L2.8-11.7Q4.7-10.55 6.45-9.98 8.2-9.4 10.3-9.4L10.3-9.4 11.5-9.4 12.3-9.35Q13.45-9.35 14.65-9.7L14.65-9.7Q15.3-9.95 15.55-10.65L15.55-10.65 12.9-11.95Q9.85-13.4 7.4-15.05L7.4-15.05Q4.85-16.9 3.75-19.75L3.75-19.75Q3.2-21.3 3.2-23.15L3.2-23.15Q3.2-27.65 5.95-30.4L5.95-30.4Q8.35-32.85 12.45-33.9L12.45-33.9Q16-34.75 20.25-34.75L20.25-34.75Q22.75-34.75 27.15-34.2L27.15-34.2Q27.6-34.1 28.4-34L28.4-34 29.9-33.7Q31.6-33.4 32.4-33.4L32.4-33.4Q32.45-33.4 32.58-33.25 32.7-33.1 32.8-33L32.8-33Q33-32.65 33.2-32.65L33.2-32.65 33.25-32.65 33.3-32.65 33.4-31.6Q33.4-30.85 33.55-30L33.55-30Q33.7-28.75 33.7-27.3L33.7-27.3Q33.7-26.05 33.55-25.5L33.55-25.5Q33.3-24.5 32.65-24.05L32.65-24.05 28-24.65 27.5-24.65 26.8-24.65Q25.1-24.65 22.9-24.3L22.9-24.3 21.25-23.95Q20.65-23.85 20.65-23.75L20.65-23.75Q20.65-22.55 22.2-21.5L22.2-21.5Q22.95-21.1 23.7-20.83 24.45-20.55 24.65-20.45L24.65-20.45Q28.35-19.4 31.05-16.8L31.05-16.8Q32.3-15.6 33-14.25 33.7-12.9 33.7-11.65L33.7-11.65Q33.7-10.9 33.5-10.05L33.5-10.05Q33.15-6.3 30.65-3.55L30.65-3.55Q28.2-1.1 24.5 0.05L24.5 0.05Q21.3 1.2 16.8 1.2L16.8 1.2ZM57.95 1.2Q52 1.2 48.55 0.25L48.55 0.25Q43.75-1 41.25-4.4L41.25-4.4Q38.35-8.45 38.35-15.65L38.35-15.65Q38.35-20.8 39.5-24.4 40.65-28 43.05-30.3L43.05-30.3Q45.45-32.6 49.22-33.68 53-34.75 58.45-34.75L58.45-34.75Q62.7-34.75 66.45-33.45L66.45-33.45Q71.05-31.8 73.6-28.4L73.6-28.4Q76.75-24.35 76.75-17.75L76.75-17.75Q76.75-10.05 74.45-5.75L74.45-5.75Q72.15-1.8 67.8-0.15L67.8-0.15Q64.25 1.2 57.95 1.2L57.95 1.2ZM57.55-3.65Q58.15-3.65 58.5-4.4L58.5-4.4Q59.25-6 59.55-9.45L59.55-9.45Q59.85-12.6 59.85-15.4L59.85-15.4 59.85-17.4 59.85-18.65Q59.85-20.85 59.55-24L59.55-24Q59.25-27.4 58.5-29.15L58.5-29.15Q58.1-30 57.55-30L57.55-30Q56.45-30 55.95-27.9L55.95-27.9Q55.45-25 55.45-22.65L55.45-22.65Q55.3-20.65 55.3-16.4L55.3-16.4Q55.3-13.55 55.45-11.7L55.45-11.7Q55.45-9.35 55.95-6.25L55.95-6.25Q56.45-3.65 57.55-3.65L57.55-3.65ZM84.15 0.55Q83.09 0.55 82.8-1.4L82.8-1.4Q82.65-2.25 82.65-2.95L82.65-2.95 82.65-4.05Q82.5-5.7 82.5-7.25L82.5-7.25Q82.3-11.85 82.15-13.75L82.15-13.75Q82.15-14.6 82.05-15.58 81.95-16.55 81.9-16.95L81.9-16.95 81.9-32.75Q81.9-33.2 82.25-33.3L82.25-33.3 82.55-33.3 82.7-33.25Q84.45-33.25 87.3-33.4L87.3-33.4Q91.09-33.5 93.65-33.5L93.65-33.5 94.15-33.5Q94.45-33.45 95.15-33.45L95.15-33.45 96.05-33.45 96.55-33.45Q98.05-33.45 98.9-33.4L98.9-33.4 104.05-33.4Q105-33.3 107.15-33.3L107.15-33.3Q107.55-33.3 107.75-33.25L107.75-33.25Q108.15-33.15 108.65-33.15L108.65-33.15Q108.84-33.15 109.05-33.3L109.05-33.3Q110.2-33.3 110.3-31.2L110.3-31.2Q110.4-30.5 110.4-30.15L110.4-30.15Q110.4-29.85 110.3-28.95L110.3-28.95Q110.25-28.15 110.25-26.4L110.25-26.4Q110.25-25.85 109.3-25.75L109.3-25.75Q109.05-25.7 108.45-25.7L108.45-25.7 107.75-25.7 105.5-25.7 104-25.65Q103.5-25.5 102.45-25.5L102.45-25.5Q101.4-25.5 101.25-25.55L101.25-25.55Q101.09-25.5 101.02-25.45 100.95-25.4 100.9-25.4L100.9-25.4Q100.9-25.3 100.84-25.2 100.8-25.1 100.8-24.9L100.8-24.9Q100.75-24.55 100.55-22.3L100.55-22.3Q100.5-21.65 100.5-20L100.5-20 100.45-19.9Q100.45-19.7 100.65-19.45L100.65-19.45 106.65-19.45Q107.25-19.45 107.52-19.3 107.8-19.15 107.95-18.75L107.95-18.75Q108.15-18.15 108.15-15.65L108.15-15.65 108.15-13.25 108.15-11.9Q108.05-11.45 107.87-11.3 107.7-11.15 107.4-11.15L107.4-11.15Q107-11.15 106.65-11.05L106.65-11.05 104.4-10.9 103.4-10.9Q102.65-10.9 102.4-10.8L102.4-10.8Q102.05-10.7 101.45-10.65L101.45-10.65 100.75-10.65Q99.95-10.65 99.65-10.45L99.65-10.45Q99.4-10.4 99.15-9.95L99.15-9.95Q99.15-5.4 99.05-3.75L99.05-3.75Q99-1.35 98.55-0.25L98.55-0.25Q97.65-0.25 95.95-0.15L95.95-0.15Q95.15-0.15 94.9-0.05L94.9-0.05 94.4-0.05 94.3-0.05Q94.09-0.05 94-0.1 93.9-0.15 93.8-0.15L93.8-0.15 93.65-0.2Q93.65-0.25 93.45-0.25L93.45-0.25Q93.4-0.25 93.27-0.2 93.15-0.15 93.05-0.05L93.05-0.05 88.9-0.05Q88.84 0 88.67 0.03 88.5 0.05 88.2 0.15L88.2 0.15 85.15 0.5 84.15 0.55ZM123.19 0.05Q122.49 0.05 122.14-0.9L122.14-0.9Q121.39-2.55 121.39-6.9L121.39-6.9Q121.39-11.1 121.54-16.55L121.54-16.55Q121.59-18.3 121.59-21.95L121.59-21.95 121.44-22.15 115.89-22.15Q115.24-22.15 114.87-22.88 114.49-23.6 114.29-24.9L114.29-24.9Q114.04-26.4 114.04-29.2L114.04-29.2 114.04-29.9Q114.04-30.4 114.09-30.7L114.09-30.7 114.09-31.45 114.09-31.9Q114.09-32.2 114.39-32.43 114.69-32.65 115.09-32.75L115.09-32.75Q115.59-32.9 116.59-32.9L116.59-32.9 120.39-32.9Q121.64-32.9 122.29-32.85L122.29-32.85 124.14-32.8 142.14-32.8Q144.09-32.8 144.69-32.75L144.69-32.75Q144.94-32.7 145.39-32.65 145.84-32.6 146.04-32.45L146.04-32.45Q146.39-32.3 146.47-32.08 146.54-31.85 146.54-31.4L146.54-31.4 146.54-23.15Q146.54-22.6 146.09-22.4L146.09-22.4Q145.79-22.3 145.29-22.3L145.29-22.3 143.69-22.3 142.04-22.3Q140.89-22.3 140.29-22.4L140.29-22.4 138.79-22.4Q138.34-22.4 138.29-22.2L138.29-22.2Q138.29-22.15 138.24-22.08 138.19-22 138.19-21.9L138.19-21.9 138.19-21.15 138.19-19.45Q138.19-18.7 138.14-18.3L138.14-18.3Q138.14-16.85 137.94-11.95L137.94-11.95 137.84-10.45Q137.74-8.35 137.64-7.4L137.64-7.4 137.64-2.65Q137.64-0.95 136.94-0.5L136.94-0.5Q136.29-0.25 136.04-0.2L136.04-0.2 134.79-0.15Q132.84-0.15 132.04-0.05L132.04-0.05 126.79 0Q125.79 0.05 123.19 0.05L123.19 0.05ZM167.54 0.05Q165.94 0.05 165.24 0L165.24 0 163.49 0 161.79 0 159.74 0Q159.34 0 158.94-0.15L158.94-0.15Q158.44-0.3 158.04-0.3L158.04-0.3 157.59-0.25Q157.09-0.4 157.09-0.8L157.09-0.8 153.59-16.65Q152.24-23.4 151.19-29L151.19-29Q150.94-29.2 150.74-30.3L150.74-30.3Q150.69-30.9 150.69-32.15L150.69-32.15Q150.69-32.8 150.92-33.23 151.14-33.65 151.59-33.65L151.59-33.65 152.29-33.65 153.44-33.65Q153.79-33.55 154.69-33.55L154.69-33.55 156.94-33.5 157.34-33.5 159.49-33.5 159.79-33.45Q159.84-33.4 159.89-33.4 159.94-33.4 159.94-33.4L159.94-33.4 159.99-33.3Q160.04-33.3 160.12-33.35 160.19-33.4 160.29-33.4L160.29-33.4Q160.59-33.5 160.69-33.5L160.69-33.5 160.84-33.5 161.29-33.45Q161.84-33.4 163.44-33.4L163.44-33.4Q163.94-33.3 164.59-33.3L164.59-33.3Q164.84-32.85 165.12-31.75 165.39-30.65 165.69-29.3L165.69-29.3Q165.79-28.55 166.19-26.15L166.19-26.15Q166.34-25.4 166.54-24.25L166.54-24.25 166.84-22.65Q166.84-22.6 166.89-22.48 166.94-22.35 166.94-22.15L166.94-22.15 167.09-21.15Q167.19-20.75 167.29-19.9L167.29-19.9Q167.39-19.65 167.44-19.28 167.49-18.9 167.54-18.65L167.54-18.65Q167.59-18.4 167.64-18.18 167.69-17.95 167.69-17.7L167.69-17.7 167.79-17.25 167.84-17.05Q167.84-16.9 167.94-16.8L167.94-16.8 167.94-16.5 168.04-16.8 168.04-17.05 168.09-17.25Q168.09-17.4 168.19-17.7L168.19-17.7Q168.19-18.05 168.34-18.65L168.34-18.65Q168.44-18.95 168.49-19.28 168.54-19.6 168.59-19.9L168.59-19.9 168.79-21.15Q168.89-21.45 168.94-21.75 168.99-22.05 168.99-22.15L168.99-22.15 169.04-22.65Q170.49-30.2 171.09-32.25L171.09-32.25Q171.14-32.55 171.27-32.83 171.39-33.1 171.69-33.25L171.69-33.25Q171.74-33.35 172.02-33.4 172.29-33.45 172.44-33.5L172.44-33.5Q173.49-33.65 173.94-33.65L173.94-33.65 174.79-33.65 176.24-33.65 177.99-33.6Q178.44-33.55 179.04-33.55L179.04-33.55 179.19-33.55Q179.24-33.6 179.27-33.63 179.29-33.65 179.29-33.65L179.29-33.65Q179.49-33.65 179.54-33.55L179.54-33.55Q179.64-33.55 179.67-33.52 179.69-33.5 179.69-33.5L179.69-33.5Q180.59-33.45 181.79-33.45L181.79-33.45Q182.29-33.4 182.84-33.4L182.84-33.4Q183.29-33.4 183.34-33.3L183.34-33.3Q183.39-33.3 183.49-33.35 183.59-33.4 183.69-33.4L183.69-33.4Q183.79-33.5 184.19-33.5L184.19-33.5 184.49-33.5 185.09-33.5Q185.89-33.5 186.04-33.3L186.04-33.3Q186.44-31.8 186.69-29.55L186.69-29.55 186.84-28.45Q187.24-25.6 187.69-23.65L187.69-23.65 187.79-23.05Q187.94-22 187.94-21.75L187.94-21.75Q187.99-21.25 188.19-20.15L188.19-20.15Q188.29-19 188.44-18.55L188.44-18.55Q188.44-18 188.54-17.3L188.54-17.3Q188.59-17.05 188.64-16.93 188.69-16.8 188.69-16.75L188.69-16.75Q188.69-16.5 188.74-16.3L188.74-16.3 188.79-16Q188.89-16.25 188.94-16.3L188.94-16.3 188.94-16.75 188.99-17.3 189.19-18.55 189.44-20.15Q189.49-20.8 189.69-21.75L189.69-21.75 189.84-23.05Q189.89-23.3 189.92-23.45 189.94-23.6 189.94-23.65L189.94-23.65Q190.24-25.05 190.34-25.75L190.34-25.75 190.54-26.8Q191.24-30.5 191.69-31.9L191.69-31.9Q191.84-32.75 192.19-33.3L192.19-33.3Q192.49-33.3 192.84-33.35 193.19-33.4 193.54-33.4L193.54-33.4Q193.94-33.4 194.44-33.5L194.44-33.5 194.54-33.5Q194.69-33.5 194.69-33.4L194.69-33.4Q194.69-33.4 194.69-33.35 194.69-33.3 194.74-33.3L194.74-33.3Q194.94-33.3 195.04-33.35 195.14-33.4 195.19-33.4L195.19-33.4 195.24-33.5 197.94-33.5 198.29-33.5Q198.84-33.5 199.24-33.55L199.24-33.55 200.49-33.55Q201.44-33.55 201.79-33.65L201.79-33.65 202.94-33.65 203.69-33.65Q204.09-33.65 204.32-33.2 204.54-32.75 204.54-32.15L204.54-32.15Q204.29-31.5 204.09-30.3L204.09-30.3Q204.04-29.75 204.04-29L204.04-29Q202.39-21.25 200.69-15.15L200.69-15.15 197.19-0.8Q196.74-0.7 196.69-0.5L196.69-0.5 196.69-0.25 196.19-0.3Q195.79-0.3 195.59-0.25L195.59-0.25 194.99-0.2 192.49-0.2Q190.54-0.2 189.59-0.25L189.59-0.25 186.74-0.25 184.29-0.25 182.84-0.25Q182.34-0.3 181.44-0.3L181.44-0.3 180.94-0.25Q180.44-0.4 180.44-0.8L180.44-0.8 177.09-17.3 173.79-0.8Q173.54 0 172.19 0L172.19 0 169.84 0Q169.19 0.05 167.54 0.05L167.54 0.05ZM210.44 0.05Q209.79 0.05 209.54-0.95L209.54-0.95Q209.49-1.1 209.49-1.45L209.49-1.45Q209.49-1.95 209.69-2.95L209.69-2.95Q209.79-3.6 209.86-3.98 209.94-4.35 209.99-4.55L209.99-4.55Q211.49-11.6 212.94-16.95L212.94-16.95 216.44-32.75Q216.44-32.85 216.59-33.05 216.74-33.25 216.94-33.3L216.94-33.3 217.19-33.3Q217.19-33.25 217.34-33.25L217.34-33.25Q217.94-33.25 218.69-33.4L218.69-33.4Q219.44-33.55 220.04-33.55L220.04-33.55Q221.14-33.55 222.09-33.4L222.09-33.4Q222.54-33.4 223.09-33.35 223.64-33.3 224.24-33.3L224.24-33.3Q224.44-33.3 224.69-33.4L224.69-33.4 225.59-33.4 226.74-33.4 227.94-33.45Q228.29-33.5 228.79-33.5L228.79-33.5Q229.19-33.5 229.19-33.55L229.19-33.55 229.99-33.55 231.69-33.55 233.79-33.55Q236.59-33.55 237.49-33.45L237.49-33.45Q237.64-33.45 237.91-33.43 238.19-33.4 238.24-33.3L238.24-33.3Q238.59-33.3 238.94-33.35 239.29-33.4 239.59-33.4L239.59-33.4Q240.29-33.55 240.94-33.55L240.94-33.55Q241.24-33.55 241.54-33.4L241.54-33.4Q241.84-33.25 242.19-33.25L242.19-33.25 242.44-33.3 242.59-33.3Q242.74-33.2 242.91-33.02 243.09-32.85 243.09-32.75L243.09-32.75 246.59-16.95Q248.19-11.1 249.49-4.55L249.49-4.55Q249.49-4.25 249.69-3.9L249.69-3.9Q249.74-3.55 249.84-2.95 249.94-2.35 249.94-1.95L249.94-1.95Q249.99-1.75 249.99-1.4L249.99-1.4Q249.99-0.7 249.69-0.25L249.69-0.25Q249.49 0.05 249.09 0.05L249.09 0.05 248.44 0.05Q247.69 0.05 247.29 0L247.29 0 245.99 0 244.74 0 243.74 0Q243.34 0 243.34-0.05L243.34-0.05 240.19-0.05 240.19-0.15Q239.99-0.25 239.69-0.25L239.69-0.25Q239.69-0.25 239.66-0.23 239.64-0.2 239.59-0.15L239.59-0.15Q239.59-0.05 239.49-0.05L239.49-0.05 239.34-0.05 238.94-0.05Q238.69-0.15 237.94-0.15L237.94-0.15Q236.44-0.25 235.59-0.25L235.59-0.25Q235.29-0.7 234.96-2.05 234.64-3.4 234.29-5.05L234.29-5.05Q234.19-5.85 234.09-6.15L234.09-6.15Q233.04-5.95 231.34-5.95L231.34-5.95 229.79-5.95 228.34-5.95 227.99-4.35Q227.34-1.05 226.94-0.25L226.94-0.25Q226.74-0.25 226.44-0.15L226.44-0.15Q226.34-0.1 226.26-0.08 226.19-0.05 226.19-0.05L226.19-0.05 225.99-0.05Q225.69-0.05 225.54-0.15L225.54-0.15Q225.44-0.25 225.29-0.25L225.29-0.25 223.04-0.15 222.24-0.15 221.49-0.15Q221.29-0.05 220.99-0.05L220.99-0.05 220.79-0.05 216.19-0.05 215.74-0.05Q215.19 0 213.49 0L213.49 0 212.19 0Q211.79 0.05 211.04 0.05L211.04 0.05 210.44 0.05ZM233.54-12.2Q233.19-14.65 233.19-14.65L233.19-14.65Q233.04-15.35 232.69-17.3L232.69-17.3Q232.59-17.8 232.19-20L232.19-20Q231.79-22.4 231.79-22.4L231.79-22.4Q231.64-23.4 231.49-24.15L231.49-24.15 231.44-24.8Q231.29-25.05 231.29-25.25L231.29-25.25 231.24-25.55Q231.19-25.45 231.19-25.25L231.19-25.25Q231.19-25.05 231.09-25L231.09-25 231.09-24.8 230.99-24.15Q230.94-23.8 230.86-23.38 230.79-22.95 230.69-22.45L230.69-22.45 230.44-21.05Q229.89-17.9 229.79-17.4L229.79-17.4Q229.74-16.85 229.54-15.75L229.54-15.75Q229.44-15.4 229.34-14.7L229.34-14.7 228.94-12.4 231.49-12.4 231.84-12.5 231.94-12.5Q232.54-12.5 232.84-12.4L232.84-12.4Q233.04-12.4 233.21-12.33 233.39-12.25 233.54-12.2L233.54-12.2ZM282.44 1.7Q282.24 1.7 282.09 1.65L282.09 1.65Q281.34 1.2 280.84 0.65L280.84 0.65Q280.69 0.4 280.64 0.4L280.64 0.4Q280.59 0.3 280.49 0.3L280.49 0.3 280.39 0.25Q280.19 0.05 280.19 0.05L280.19 0.05 275.94-6.25Q275.64-6.9 275.09-7.65L275.09-7.65Q274.74-8 274.49-8.4L274.49-8.4Q274.29-8.7 274.09-8.7L274.09-8.7Q273.94-8.7 273.86-8.55 273.79-8.4 273.74-8.15L273.74-8.15Q273.59-6.8 273.59-4.5L273.59-4.5Q273.59-2.3 273.34-0.95L273.34-0.95Q273.19-0.3 272.89-0.3L272.89-0.3 272.59-0.3Q272.49-0.35 272.41-0.38 272.34-0.4 272.34-0.4L272.34-0.4Q270.59-0.25 267.09-0.05L267.09-0.05Q263.69 0.15 261.89 0.15L261.89 0.15Q261.39 0.15 261.09 0.05L261.09 0.05 259.99 0.05 259.09 0.05 258.64 0.05 256.84-0.55 256.69-0.95Q256.69-1 256.66-1.15 256.64-1.3 256.64-1.55L256.64-1.55Q256.64-1.85 256.54-2.65L256.54-2.65Q256.29-5.7 256.34-5.05L256.34-5.05Q256.24-6.35 255.99-9.55L255.99-9.55 255.84-11.4Q255.84-12.3 255.79-13 255.74-13.7 255.69-14.2L255.69-14.2 255.59-15.3Q255.44-17.35 255.44-19.15L255.44-19.15Q255.44-19.2 255.46-19.3 255.49-19.4 255.49-19.7L255.49-19.7Q255.59-20 255.59-20.65L255.59-20.65 255.64-21.55 255.69-22.15Q255.69-23.2 255.59-25.2L255.59-25.2Q255.39-26.45 255.39-28.4L255.39-28.4Q255.39-31.2 255.74-32.5L255.74-32.5Q256.19-34.3 257.24-34.3L257.24-34.3Q262.89-34.3 268.74-34.15L268.74-34.15Q270.04-34.15 272.64-34.05L272.64-34.05 274.59-34Q278.59-33.9 280.14-33.9L280.14-33.9Q286.59-33.6 289.89-30.65L289.89-30.65Q291.39-29.4 292.11-27.65 292.84-25.9 292.84-23.9L292.84-23.9Q292.84-21.6 291.99-19.65L291.99-19.65Q291.29-18.1 289.99-16.8L289.99-16.8Q288.74-15.55 287.14-14.8L287.14-14.8Q287.44-14.65 287.94-14.15L287.94-14.15Q288.14-13.9 288.64-13.5L288.64-13.5 289.34-13Q289.49-12.75 289.69-12.53 289.89-12.3 290.09-12.05L290.09-12.05 292.44-9.15Q294.04-7.1 294.49-6.15L294.49-6.15Q294.84-5.5 294.84-5.15L294.84-5.15Q294.84-4.65 294.44-4.25 294.04-3.85 293.24-3.25L293.24-3.25Q292.64-2.8 291.84-2.4L291.84-2.4Q291.09-2 290.69-1.65L290.69-1.65 288.84-0.65Q287.84-0.1 286.69 0.3L286.69 0.3Q286.64 0.3 286.56 0.35 286.49 0.4 286.34 0.45L286.34 0.45Q286.04 0.6 284.69 1L284.69 1Q284.44 1.15 283.84 1.25L283.84 1.25Q283.69 1.35 283.49 1.4 283.29 1.45 283.19 1.45L283.19 1.45 282.94 1.45Q282.89 1.7 282.74 1.7L282.74 1.7 282.59 1.7 282.44 1.7ZM273.49-15.95L274.24-15.95Q275.79-15.95 276.69-17.5L276.69-17.5Q277.54-18.9 277.64-20.7L277.64-20.7Q277.74-21.75 277.74-23.2L277.74-23.2 277.74-23.75Q277.74-24.9 277.34-26.15L277.34-26.15Q276.94-27.75 275.69-28.45L275.69-28.45Q275.14-28.9 274.24-28.9L274.24-28.9Q273.99-28.9 273.84-28.3L273.84-28.3Q273.39-27.2 273.34-24.8L273.34-24.8Q273.14-23.8 273.14-22.45L273.14-22.45 273.09-20.95Q272.99-18.05 272.99-16.15L272.99-16.15Q272.99-16.1 273.04-16.05 273.09-16 273.14-16L273.14-16 273.49-15.95ZM303.33 0Q303.08 0 302.58-0.08 302.08-0.15 301.38-0.2L301.38-0.2 300.33-0.45Q300.08-0.5 299.96-0.58 299.83-0.65 299.88-0.7L299.88-0.7Q299.88-2 299.73-4.15L299.73-4.15Q299.73-4.9 299.68-5.48 299.63-6.05 299.58-6.45L299.58-6.45 299.48-8.6Q299.48-9.45 299.38-10.75L299.38-10.75 299.33-12.3Q299.33-14.2 299.28-15.25L299.28-15.25Q299.23-16.3 299.23-19.65L299.23-19.65Q299.23-22.8 299.28-26.15 299.33-29.5 299.58-32.5L299.58-32.5Q299.58-33.05 300.78-33.4L300.78-33.4Q301.53-33.5 303.28-33.5L303.28-33.5Q307.33-33.5 309.23-33.65L309.23-33.65Q315.13-33.75 318.13-33.75L318.13-33.75 320.33-33.75Q324.43-33.65 326.63-33.45L326.63-33.45Q327.43-33.45 327.78-31.55L327.78-31.55Q327.93-31.2 328.13-29.75L328.13-29.75Q328.28-29 328.53-27.9L328.53-27.9Q328.58-27.6 328.56-27.33 328.53-27.05 328.53-27L328.53-27Q328.48-26.5 327.98-26.5L327.98-26.5Q327.78-26.55 327.38-26.55L327.38-26.55Q325.28-26.55 322.23-26.2L322.23-26.2 319.58-26Q317.93-25.8 316.98-25.75L316.98-25.75Q316.83-25.75 316.58-25.15L316.58-25.15Q316.38-24.5 316.13-22.15L316.13-22.15 316.03-20.9Q316.03-20.25 316.18-20.08 316.33-19.9 316.83-19.9L316.83-19.9 321.28-19.9Q323.23-19.9 325.73-19.65L325.73-19.65 326.33-19.65Q326.98-19.5 327.13-19.15L327.13-19.15Q327.33-18.85 327.38-18.5L327.38-18.5 327.58-14.05 327.58-13.9Q327.58-13.05 325.78-12.9L325.78-12.9Q324.73-12.65 321.78-12.65L321.78-12.65Q319.23-12.65 318.48-12.7L318.48-12.7Q317.03-12.7 316.73-12.65L316.73-12.65Q316.18-12.5 316.03-12.08 315.88-11.65 315.88-10.65L315.88-10.65Q315.88-10 315.78-8.8L315.78-8.8Q315.73-8.2 315.73-6.9L315.73-6.9Q318.98-6.9 320.53-7L320.53-7Q322.23-7.15 325.33-7.15L325.33-7.15Q325.53-7.15 325.73-6.8L325.73-6.8Q325.98-6.3 326.53-4.55L326.53-4.55Q326.83-3.55 327.13-2.05L327.13-2.05Q327.23-1.7 327.23-1.3L327.23-1.3Q327.23-0.25 326.23-0.25L326.23-0.25Q324.93-0.25 322.73-0.15L322.73-0.15Q321.58-0.05 319.13-0.05L319.13-0.05Q313.88-0.05 311.23 0L311.23 0 303.33 0ZM362.63 0.05L356.03 0 348.38-0.05Q347.53-0.05 347.28-1.15L347.28-1.15Q347.03-1.85 347.03-3.15L347.03-3.15Q347.03-7.5 346.93-10.9L346.93-10.9Q346.78-15.8 346.78-21.25L346.78-21.25 346.78-32.25Q346.78-32.7 347.2-33.13 347.63-33.55 348.08-33.55L348.08-33.55 353.88-33.5Q355.53-33.45 358.03-33.45L358.03-33.45Q361.78-33.45 363.88-33.5L363.88-33.5 365.73-33.55Q368.83-33.65 370.63-33.65L370.63-33.65Q373.73-33.65 376.63-32.45L376.63-32.45Q380.03-31.15 382.08-28L382.08-28Q384.53-24.2 384.53-18.65L384.53-18.65Q384.53-13.4 383.35-9.9 382.18-6.4 379.63-4.15L379.63-4.15Q377.08-1.95 372.95-0.95 368.83 0.05 362.63 0.05L362.63 0.05ZM363.03-6.65Q363.23-6.6 363.58-6.6L363.58-6.6Q363.98-6.6 364.68-6.7L364.68-6.7Q364.93-6.75 365.05-6.83 365.18-6.9 365.28-6.95L365.28-6.95Q365.88-7.65 366.43-9.9L366.43-9.9Q366.78-11.3 367.28-14.7L367.28-14.7Q367.53-17.6 367.53-19.7L367.53-19.7 367.53-20.65Q367.53-21.95 367.28-24.55L367.28-24.55Q366.93-27.15 366.28-28.2L366.28-28.2Q365.73-28.9 365.28-28.9L365.28-28.9Q364.83-28.9 364.48-28.8 364.13-28.7 364.03-28.65L364.03-28.65Q363.93-28.6 363.58-28.4L363.58-28.4 363.53-22.4Q363.53-21.6 363.43-20L363.43-20 363.38-18.8Q363.28-16.3 363.28-15.2L363.28-15.2 363.03-6.65ZM393.78 0Q393.53 0 393.03-0.08 392.53-0.15 391.83-0.2L391.83-0.2 390.78-0.45Q390.53-0.5 390.4-0.58 390.28-0.65 390.33-0.7L390.33-0.7Q390.33-2 390.18-4.15L390.18-4.15Q390.18-4.9 390.13-5.48 390.08-6.05 390.03-6.45L390.03-6.45 389.93-8.6Q389.93-9.45 389.83-10.75L389.83-10.75 389.78-12.3Q389.78-14.2 389.73-15.25L389.73-15.25Q389.68-16.3 389.68-19.65L389.68-19.65Q389.68-22.8 389.73-26.15 389.78-29.5 390.03-32.5L390.03-32.5Q390.03-33.05 391.23-33.4L391.23-33.4Q391.98-33.5 393.73-33.5L393.73-33.5Q397.78-33.5 399.68-33.65L399.68-33.65Q405.58-33.75 408.58-33.75L408.58-33.75 410.78-33.75Q414.88-33.65 417.08-33.45L417.08-33.45Q417.88-33.45 418.23-31.55L418.23-31.55Q418.38-31.2 418.58-29.75L418.58-29.75Q418.73-29 418.98-27.9L418.98-27.9Q419.03-27.6 419-27.33 418.98-27.05 418.98-27L418.98-27Q418.93-26.5 418.43-26.5L418.43-26.5Q418.23-26.55 417.83-26.55L417.83-26.55Q415.73-26.55 412.68-26.2L412.68-26.2 410.03-26Q408.38-25.8 407.43-25.75L407.43-25.75Q407.28-25.75 407.03-25.15L407.03-25.15Q406.83-24.5 406.58-22.15L406.58-22.15 406.48-20.9Q406.48-20.25 406.63-20.08 406.78-19.9 407.28-19.9L407.28-19.9 411.73-19.9Q413.68-19.9 416.18-19.65L416.18-19.65 416.78-19.65Q417.43-19.5 417.58-19.15L417.58-19.15Q417.78-18.85 417.83-18.5L417.83-18.5 418.03-14.05 418.03-13.9Q418.03-13.05 416.23-12.9L416.23-12.9Q415.18-12.65 412.23-12.65L412.23-12.65Q409.68-12.65 408.93-12.7L408.93-12.7Q407.48-12.7 407.18-12.65L407.18-12.65Q406.63-12.5 406.48-12.08 406.33-11.65 406.33-10.65L406.33-10.65Q406.33-10 406.23-8.8L406.23-8.8Q406.18-8.2 406.18-6.9L406.18-6.9Q409.43-6.9 410.98-7L410.98-7Q412.68-7.15 415.78-7.15L415.78-7.15Q415.98-7.15 416.18-6.8L416.18-6.8Q416.43-6.3 416.98-4.55L416.98-4.55Q417.28-3.55 417.58-2.05L417.58-2.05Q417.68-1.7 417.68-1.3L417.68-1.3Q417.68-0.25 416.68-0.25L416.68-0.25Q415.38-0.25 413.18-0.15L413.18-0.15Q412.03-0.05 409.58-0.05L409.58-0.05Q404.33-0.05 401.68 0L401.68 0 393.78 0ZM434.67 0Q434.07 0 433.32-0.15L433.32-0.15Q432.57-0.3 431.97-0.3L431.97-0.3Q431.82-0.3 431.82-0.25L431.82-0.25 431.57-0.25Q431.07-0.55 431.07-0.8L431.07-0.8 427.57-16.65Q426.12-21.85 424.62-29L424.62-29Q424.57-29.15 424.55-29.5 424.52-29.85 424.42-30.15L424.42-30.15Q424.17-31.15 424.17-31.95L424.17-31.95Q424.17-32.55 424.32-33L424.32-33Q424.42-33.65 425.07-33.65L425.07-33.65 425.67-33.65 426.82-33.65Q427.22-33.55 428.12-33.55L428.12-33.55 430.37-33.5 430.82-33.5 435.42-33.5Q435.47-33.45 435.62-33.4 435.77-33.35 435.92-33.3L435.92-33.3Q436.02-33.3 436.1-33.35 436.17-33.4 436.22-33.4L436.22-33.4Q436.42-33.5 436.62-33.5L436.62-33.5 436.82-33.5 437.32-33.45Q437.97-33.4 440.07-33.4L440.07-33.4Q440.62-33.3 441.57-33.3L441.57-33.3Q441.87-32.7 442.57-29.65L442.57-29.65 443.12-26.8Q443.32-25.75 443.82-23.65L443.82-23.65Q443.82-23.6 443.85-23.4 443.87-23.2 443.92-22.9L443.92-22.9Q444.02-22.5 444.1-22.03 444.17-21.55 444.32-21L444.32-21Q444.37-20.65 444.72-18.65L444.72-18.65 445.57-14.5 445.72-13.75 445.72-13.55Q445.82-13.5 445.82-13.3L445.82-13.3 445.87-13 445.92-13.3Q445.92-13.6 446.07-13.75L446.07-13.75Q446.07-13.8 446.1-13.98 446.12-14.15 446.17-14.5L446.17-14.5Q446.57-16.5 446.97-18.65L446.97-18.65 447.47-21Q447.57-21.6 447.67-22.05 447.77-22.5 447.82-22.9L447.82-22.9 447.97-23.65Q448.22-24.7 448.62-26.8L448.62-26.8 449.17-29.4Q449.27-29.95 449.67-31.9L449.67-31.9Q449.92-32.7 450.22-33.3L450.22-33.3Q450.92-33.3 451.32-33.35L451.32-33.35 452.57-33.4 453.57-33.45 453.97-33.5 454.12-33.5Q454.22-33.5 454.22-33.4L454.22-33.4Q454.27-33.4 454.3-33.35 454.32-33.3 454.32-33.3L454.32-33.3Q454.52-33.3 454.65-33.35 454.77-33.4 454.82-33.4L454.82-33.4 454.82-33.5 457.97-33.5 458.37-33.5Q458.97-33.5 459.37-33.55L459.37-33.55 460.62-33.55Q461.57-33.55 461.92-33.65L461.92-33.65 463.07-33.65 463.72-33.65Q464.62-33.65 464.62-32.25L464.62-32.25 464.57-31.65Q464.57-31.15 464.37-30.15L464.37-30.15Q464.22-29.65 464.2-29.38 464.17-29.1 464.12-29L464.12-29Q462.82-22.4 461.22-16.65L461.22-16.65 457.72-0.8Q457.72-0.65 457.22-0.25L457.22-0.25 457.07-0.25 456.82-0.3Q456.47-0.3 456.17-0.15L456.17-0.15Q455.87 0 455.57 0L455.57 0Q454.92 0 454.22-0.15L454.22-0.15Q453.42-0.25 452.87-0.25L452.87-0.25Q446.67 0 434.67 0L434.67 0ZM474.32 0Q474.07 0 473.57-0.08 473.07-0.15 472.37-0.2L472.37-0.2 471.32-0.45Q471.07-0.5 470.94-0.58 470.82-0.65 470.87-0.7L470.87-0.7Q470.87-2 470.72-4.15L470.72-4.15Q470.72-4.9 470.67-5.48 470.62-6.05 470.57-6.45L470.57-6.45 470.47-8.6Q470.47-9.45 470.37-10.75L470.37-10.75 470.32-12.3Q470.32-14.2 470.27-15.25L470.27-15.25Q470.22-16.3 470.22-19.65L470.22-19.65Q470.22-22.8 470.27-26.15 470.32-29.5 470.57-32.5L470.57-32.5Q470.57-33.05 471.77-33.4L471.77-33.4Q472.52-33.5 474.27-33.5L474.27-33.5Q478.32-33.5 480.22-33.65L480.22-33.65Q486.12-33.75 489.12-33.75L489.12-33.75 491.32-33.75Q495.42-33.65 497.62-33.45L497.62-33.45Q498.42-33.45 498.77-31.55L498.77-31.55Q498.92-31.2 499.12-29.75L499.12-29.75Q499.27-29 499.52-27.9L499.52-27.9Q499.57-27.6 499.55-27.33 499.52-27.05 499.52-27L499.52-27Q499.47-26.5 498.97-26.5L498.97-26.5Q498.77-26.55 498.37-26.55L498.37-26.55Q496.27-26.55 493.22-26.2L493.22-26.2 490.57-26Q488.92-25.8 487.97-25.75L487.97-25.75Q487.82-25.75 487.57-25.15L487.57-25.15Q487.37-24.5 487.12-22.15L487.12-22.15 487.02-20.9Q487.02-20.25 487.17-20.08 487.32-19.9 487.82-19.9L487.82-19.9 492.27-19.9Q494.22-19.9 496.72-19.65L496.72-19.65 497.32-19.65Q497.97-19.5 498.12-19.15L498.12-19.15Q498.32-18.85 498.37-18.5L498.37-18.5 498.57-14.05 498.57-13.9Q498.57-13.05 496.77-12.9L496.77-12.9Q495.72-12.65 492.77-12.65L492.77-12.65Q490.22-12.65 489.47-12.7L489.47-12.7Q488.02-12.7 487.72-12.65L487.72-12.65Q487.17-12.5 487.02-12.08 486.87-11.65 486.87-10.65L486.87-10.65Q486.87-10 486.77-8.8L486.77-8.8Q486.72-8.2 486.72-6.9L486.72-6.9Q489.97-6.9 491.52-7L491.52-7Q493.22-7.15 496.32-7.15L496.32-7.15Q496.52-7.15 496.72-6.8L496.72-6.8Q496.97-6.3 497.52-4.55L497.52-4.55Q497.82-3.55 498.12-2.05L498.12-2.05Q498.22-1.7 498.22-1.3L498.22-1.3Q498.22-0.25 497.22-0.25L497.22-0.25Q495.92-0.25 493.72-0.15L493.72-0.15Q492.57-0.05 490.12-0.05L490.12-0.05Q484.87-0.05 482.22 0L482.22 0 474.32 0ZM521.12 0Q515.97 0 513.62-0.05L513.62-0.05Q511.47-0.05 510.32-0.1L510.32-0.1 506.22-0.15Q505.77-0.15 505.37-0.55L505.37-0.55Q504.97-0.95 504.97-1.4L504.97-1.4 504.97-12.4 504.97-17.2 504.92-21.3Q504.92-23.35 505.02-26.45L505.02-26.45Q505.02-27.1 505.17-29.8L505.17-29.8 505.17-30.95Q505.17-32.35 505.72-33.2L505.72-33.2Q505.97-33.65 506.52-33.65L506.52-33.65Q508.97-33.65 511.87-33.55L511.87-33.55Q512.27-33.5 513.02-33.5L513.02-33.5Q514.67-33.5 515.47-33.45L515.47-33.45 518.17-33.45Q518.37-33.45 519.34-33.45 520.32-33.45 520.87-33.2L520.87-33.2Q521.77-32.7 521.77-30.9L521.77-30.9 521.72-30.5Q521.72-30.35 521.62-29.75L521.62-29.75Q521.47-29 521.47-28.65L521.47-28.65Q521.47-28.1 521.62-27.25L521.62-27.25Q521.72-26.65 521.72-26.45L521.72-26.45 521.77-26.15 521.77-19.15 521.77-15.9 521.77-12.8 521.77-12.2Q521.77-11.8 522.22-11.7L522.22-11.7Q522.37-11.65 522.87-11.65L522.87-11.65 526.52-11.65Q527.87-11.7 530.62-11.7L530.62-11.7Q531.17-11.7 531.52-11.38 531.87-11.05 531.87-10.7L531.87-10.7 531.87-1.15 531.87-1.05Q531.87-0.65 531.47-0.4L531.47-0.4Q531.02-0.2 530.42-0.15L530.42-0.15Q529.77 0 528.37 0L528.37 0 521.12 0ZM555.11 1.2Q549.16 1.2 545.71 0.25L545.71 0.25Q540.91-1 538.41-4.4L538.41-4.4Q535.51-8.45 535.51-15.65L535.51-15.65Q535.51-20.8 536.66-24.4 537.81-28 540.21-30.3L540.21-30.3Q542.61-32.6 546.39-33.68 550.16-34.75 555.61-34.75L555.61-34.75Q559.86-34.75 563.61-33.45L563.61-33.45Q568.21-31.8 570.76-28.4L570.76-28.4Q573.91-24.35 573.91-17.75L573.91-17.75Q573.91-10.05 571.61-5.75L571.61-5.75Q569.31-1.8 564.96-0.15L564.96-0.15Q561.41 1.2 555.11 1.2L555.11 1.2ZM554.71-3.65Q555.31-3.65 555.66-4.4L555.66-4.4Q556.41-6 556.71-9.45L556.71-9.45Q557.01-12.6 557.01-15.4L557.01-15.4 557.01-17.4 557.01-18.65Q557.01-20.85 556.71-24L556.71-24Q556.41-27.4 555.66-29.15L555.66-29.15Q555.26-30 554.71-30L554.71-30Q553.61-30 553.11-27.9L553.11-27.9Q552.61-25 552.61-22.65L552.61-22.65Q552.46-20.65 552.46-16.4L552.46-16.4Q552.46-13.55 552.61-11.7L552.61-11.7Q552.61-9.35 553.11-6.25L553.11-6.25Q553.61-3.65 554.71-3.65L554.71-3.65ZM580.66-0.05Q579.81-0.05 579.56-1.15L579.56-1.15Q579.31-1.7 579.31-3.15L579.31-3.15Q579.31-7.5 579.21-10.9L579.21-10.9Q579.06-15.8 579.06-21.25L579.06-21.25 579.06-32.25Q579.06-32.7 579.49-33.13 579.91-33.55 580.36-33.55L580.36-33.55 586.11-33.5Q587.71-33.45 590.31-33.45L590.31-33.45Q594.06-33.45 596.11-33.5L596.11-33.5 597.96-33.55Q600.96-33.65 602.91-33.65L602.91-33.65Q606.06-33.65 608.91-32.75L608.91-32.75Q612.26-31.75 614.36-29.3L614.36-29.3Q616.71-26.65 616.71-22.15L616.71-22.15Q616.71-14.55 612.86-11.15L612.86-11.15Q609.46-7.95 602.71-7.95L602.71-7.95 595.86-7.95Q595.91-6.8 595.91-5.5L595.91-5.5Q595.91-5.05 595.89-4.42 595.86-3.8 595.86-2.75L595.86-2.75Q595.86-1.1 595.16-0.65L595.16-0.65Q594.61-0.2 593.11-0.2L593.11-0.2Q590.91-0.2 590.06-0.15L590.06-0.15Q586.61-0.15 584.56-0.05L584.56-0.05 580.66-0.05ZM597.16-13.95L598.56-13.95Q599.61-13.95 600.11-15.95L600.11-15.95Q600.51-17.3 600.71-19.95L600.71-19.95Q600.81-21.4 600.81-23.2L600.81-23.2 600.81-23.75Q600.81-24.55 600.56-26.15L600.56-26.15Q600.36-27.05 600.11-27.58 599.86-28.1 599.46-28.45L599.46-28.45Q599.06-28.9 598.56-28.9L598.56-28.9Q598.31-28.9 598.14-28.7 597.96-28.5 597.81-28.2L597.81-28.2Q597.26-27.3 596.81-24.2L596.81-24.2Q596.66-23.3 596.56-21.5L596.56-21.5Q596.31-18.75 596.31-14.15L596.31-14.15Q596.31-14.15 596.36-14.1 596.41-14.05 596.56-14L596.56-14 597.16-13.95ZM625.11 0Q624.86 0 624.36-0.08 623.86-0.15 623.16-0.2L623.16-0.2 622.11-0.45Q621.86-0.5 621.73-0.58 621.61-0.65 621.66-0.7L621.66-0.7Q621.66-2 621.51-4.15L621.51-4.15Q621.51-4.9 621.46-5.48 621.41-6.05 621.36-6.45L621.36-6.45 621.26-8.6Q621.26-9.45 621.16-10.75L621.16-10.75 621.11-12.3Q621.11-14.2 621.06-15.25L621.06-15.25Q621.01-16.3 621.01-19.65L621.01-19.65Q621.01-22.8 621.06-26.15 621.11-29.5 621.36-32.5L621.36-32.5Q621.36-33.05 622.56-33.4L622.56-33.4Q623.31-33.5 625.06-33.5L625.06-33.5Q629.11-33.5 631.01-33.65L631.01-33.65Q636.91-33.75 639.91-33.75L639.91-33.75 642.11-33.75Q646.21-33.65 648.41-33.45L648.41-33.45Q649.21-33.45 649.56-31.55L649.56-31.55Q649.71-31.2 649.91-29.75L649.91-29.75Q650.06-29 650.31-27.9L650.31-27.9Q650.36-27.6 650.33-27.33 650.31-27.05 650.31-27L650.31-27Q650.26-26.5 649.76-26.5L649.76-26.5Q649.56-26.55 649.16-26.55L649.16-26.55Q647.06-26.55 644.01-26.2L644.01-26.2 641.36-26Q639.71-25.8 638.76-25.75L638.76-25.75Q638.61-25.75 638.36-25.15L638.36-25.15Q638.16-24.5 637.91-22.15L637.91-22.15 637.81-20.9Q637.81-20.25 637.96-20.08 638.11-19.9 638.61-19.9L638.61-19.9 643.06-19.9Q645.01-19.9 647.51-19.65L647.51-19.65 648.11-19.65Q648.76-19.5 648.91-19.15L648.91-19.15Q649.11-18.85 649.16-18.5L649.16-18.5 649.36-14.05 649.36-13.9Q649.36-13.05 647.56-12.9L647.56-12.9Q646.51-12.65 643.56-12.65L643.56-12.65Q641.01-12.65 640.26-12.7L640.26-12.7Q638.81-12.7 638.51-12.65L638.51-12.65Q637.96-12.5 637.81-12.08 637.66-11.65 637.66-10.65L637.66-10.65Q637.66-10 637.56-8.8L637.56-8.8Q637.51-8.2 637.51-6.9L637.51-6.9Q640.76-6.9 642.31-7L642.31-7Q644.01-7.15 647.11-7.15L647.11-7.15Q647.31-7.15 647.51-6.8L647.51-6.8Q647.76-6.3 648.31-4.55L648.31-4.55Q648.61-3.55 648.91-2.05L648.91-2.05Q649.01-1.7 649.01-1.3L649.01-1.3Q649.01-0.25 648.01-0.25L648.01-0.25Q646.71-0.25 644.51-0.15L644.51-0.15Q643.36-0.05 640.91-0.05L640.91-0.05Q635.66-0.05 633.01 0L633.01 0 625.11 0ZM682.51 1.7Q682.31 1.7 682.16 1.65L682.16 1.65Q681.41 1.2 680.91 0.65L680.91 0.65Q680.76 0.4 680.71 0.4L680.71 0.4Q680.66 0.3 680.56 0.3L680.56 0.3 680.46 0.25Q680.26 0.05 680.26 0.05L680.26 0.05 676.01-6.25Q675.71-6.9 675.16-7.65L675.16-7.65Q674.81-8 674.56-8.4L674.56-8.4Q674.36-8.7 674.16-8.7L674.16-8.7Q674.01-8.7 673.93-8.55 673.86-8.4 673.81-8.15L673.81-8.15Q673.66-6.8 673.66-4.5L673.66-4.5Q673.66-2.3 673.41-0.95L673.41-0.95Q673.26-0.3 672.96-0.3L672.96-0.3 672.66-0.3Q672.56-0.35 672.48-0.38 672.41-0.4 672.41-0.4L672.41-0.4Q670.66-0.25 667.16-0.05L667.16-0.05Q663.76 0.15 661.96 0.15L661.96 0.15Q661.46 0.15 661.16 0.05L661.16 0.05 660.06 0.05 659.16 0.05 658.71 0.05 656.91-0.55 656.76-0.95Q656.76-1 656.73-1.15 656.71-1.3 656.71-1.55L656.71-1.55Q656.71-1.85 656.61-2.65L656.61-2.65Q656.36-5.7 656.41-5.05L656.41-5.05Q656.31-6.35 656.06-9.55L656.06-9.55 655.91-11.4Q655.91-12.3 655.86-13 655.81-13.7 655.76-14.2L655.76-14.2 655.66-15.3Q655.51-17.35 655.51-19.15L655.51-19.15Q655.51-19.2 655.53-19.3 655.56-19.4 655.56-19.7L655.56-19.7Q655.66-20 655.66-20.65L655.66-20.65 655.71-21.55 655.76-22.15Q655.76-23.2 655.66-25.2L655.66-25.2Q655.46-26.45 655.46-28.4L655.46-28.4Q655.46-31.2 655.81-32.5L655.81-32.5Q656.26-34.3 657.31-34.3L657.31-34.3Q662.96-34.3 668.81-34.15L668.81-34.15Q670.11-34.15 672.71-34.05L672.71-34.05 674.66-34Q678.66-33.9 680.21-33.9L680.21-33.9Q686.66-33.6 689.96-30.65L689.96-30.65Q691.46-29.4 692.18-27.65 692.91-25.9 692.91-23.9L692.91-23.9Q692.91-21.6 692.06-19.65L692.06-19.65Q691.36-18.1 690.06-16.8L690.06-16.8Q688.81-15.55 687.21-14.8L687.21-14.8Q687.51-14.65 688.01-14.15L688.01-14.15Q688.21-13.9 688.71-13.5L688.71-13.5 689.41-13Q689.56-12.75 689.76-12.53 689.96-12.3 690.16-12.05L690.16-12.05 692.51-9.15Q694.11-7.1 694.56-6.15L694.56-6.15Q694.91-5.5 694.91-5.15L694.91-5.15Q694.91-4.65 694.51-4.25 694.11-3.85 693.31-3.25L693.31-3.25Q692.71-2.8 691.91-2.4L691.91-2.4Q691.16-2 690.76-1.65L690.76-1.65 688.91-0.65Q687.91-0.1 686.76 0.3L686.76 0.3Q686.71 0.3 686.63 0.35 686.56 0.4 686.41 0.45L686.41 0.45Q686.11 0.6 684.76 1L684.76 1Q684.51 1.15 683.91 1.25L683.91 1.25Q683.76 1.35 683.56 1.4 683.36 1.45 683.26 1.45L683.26 1.45 683.01 1.45Q682.96 1.7 682.81 1.7L682.81 1.7 682.66 1.7 682.51 1.7ZM673.56-15.95L674.31-15.95Q675.86-15.95 676.76-17.5L676.76-17.5Q677.61-18.9 677.71-20.7L677.71-20.7Q677.81-21.75 677.81-23.2L677.81-23.2 677.81-23.75Q677.81-24.9 677.41-26.15L677.41-26.15Q677.01-27.75 675.76-28.45L675.76-28.45Q675.21-28.9 674.31-28.9L674.31-28.9Q674.06-28.9 673.91-28.3L673.91-28.3Q673.46-27.2 673.41-24.8L673.41-24.8Q673.21-23.8 673.21-22.45L673.21-22.45 673.16-20.95Q673.06-18.05 673.06-16.15L673.06-16.15Q673.06-16.1 673.11-16.05 673.16-16 673.21-16L673.21-16 673.56-15.95Z"
                                                                  opacity="1"
                                                                  transform="matrix(1,0,0,1,0,0)"
                                                                  fill="#ffffff"
                                                                  class="undefined-text-1"
                                                                  data-fill-palette-color="quaternary"
                                                                  id="text-1" />
                                                            </svg>
                                                         </g>
                                                      </svg>
                                                   </g>
                                                </svg>
                                             </g>
                                          </svg>
                                       </g>
                                       <g transform="matrix(1,0,0,1,40.713262274387006,0)">
                                          <svg viewBox="0 0 131.7319166783831 106.77517087799045"
                                             height="106.77517087799045" width="131.7319166783831">
                                             <g>
                                                <svg
                                                   xmlns:x="http://ns.adobe.com/Extensibility/1.0/"
                                                   xmlns:i="http://ns.adobe.com/AdobeIllustrator/10.0/"
                                                   xmlns:graph="http://ns.adobe.com/Graphs/1.0/"
                                                   xmlns="http://www.w3.org/2000/svg"
                                                   xmlns:xlink="http://www.w3.org/1999/xlink"
                                                   version="1.1" x="0" y="0"
                                                   viewBox="3.5 12.300000190734863 92.89999389648438 75.29999542236328"
                                                   enable-background="new 0 0 100 100"
                                                   xml:space="preserve" height="106.77517087799045"
                                                   width="131.7319166783831" class="icon-icon-0"
                                                   data-fill-palette-color="quaternary" id="icon-0"><path d="M10.7 87.6h78.5c4 0 7.2-3.2 7.2-7.2V19.5c0-4-3.2-7.2-7.2-7.2H10.7c-4 0-7.2 3.2-7.2 7.2v60.9C3.6 84.4 6.8 87.6 10.7 87.6zM89.3 82.6H10.7c-1.2 0-2.2-1-2.2-2.2V34.9h82.9v45.5C91.4 81.7 90.5 82.6 89.3 82.6zM10.7 17.4h78.5c1.2 0 2.2 1 2.2 2.2v10.4H8.6V19.5C8.6 18.3 9.5 17.4 10.7 17.4zM21.9 23.6c0-1.7 1.4-3 3-3s3 1.4 3 3c0 1.7-1.4 3-3 3S21.9 25.3 21.9 23.6zM31.9 23.6c0-1.7 1.4-3 3-3s3 1.4 3 3c0 1.7-1.4 3-3 3S31.9 25.3 31.9 23.6zM11.9 23.6c0-1.7 1.4-3 3-3 1.7 0 3 1.4 3 3 0 1.7-1.4 3-3 3C13.3 26.7 11.9 25.3 11.9 23.6zM85.4 74.7c0 1.4-1.1 2.5-2.5 2.5H17.1c-1.4 0-2.5-1.1-2.5-2.5s1.1-2.5 2.5-2.5h65.8C84.3 72.2 85.4 73.4 85.4 74.7zM85.4 64.2c0 1.4-1.1 2.5-2.5 2.5H34.4c-1.4 0-2.5-1.1-2.5-2.5s1.1-2.5 2.5-2.5h48.5C84.3 61.7 85.4 62.8 85.4 64.2zM85.4 53.7c0 1.4-1.1 2.5-2.5 2.5H17.1c-1.4 0-2.5-1.1-2.5-2.5s1.1-2.5 2.5-2.5h65.8C84.3 51.2 85.4 52.3 85.4 53.7zM85.4 43.1c0 1.4-1.1 2.5-2.5 2.5H50c-1.4 0-2.5-1.1-2.5-2.5s1.1-2.5 2.5-2.5h32.9C84.3 40.6 85.4 41.7 85.4 43.1z" fill="#ffffff" data-fill-palette-color="quaternary"/></svg>
                                             </g>
                                          </svg>
                                       </g>
                                       <g />
                                    </svg>
                                 </g>
                              </svg>
                           </g>
                        </svg>
                     </g>
                  </svg>
               </g>
               <defs />
            </svg>
            <rect width="333.90454557049503" height="333.90454557049503" fill="none" stroke="none"
               visibility="hidden" />
         </g>
      </svg>
   </g>
</svg>